<?xml version="1.0" encoding="UTF-8"?>
<!DOCTYPE svg PUBLIC "-//W3C//DTD SVG 1.1//EN" "http://www.w3.org/Graphics/SVG/1.1/DTD/svg11.dtd">
<svg xmlns="http://www.w3.org/2000/svg" version="1.1" width="150px" height="75px" style="shape-rendering:geometricPrecision; text-rendering:geometricPrecision; image-rendering:optimizeQuality; fill-rule:evenodd; clip-rule:evenodd" xmlns:xlink="http://www.w3.org/1999/xlink">
<g><path style="opacity:1" fill="#d52c2f" d="M 70.5,0.5 C 68.871,2.19593 69.2043,3.19593 71.5,3.5C 74.0873,4.74867 76.754,5.74867 79.5,6.5C 76.1667,6.5 72.8333,6.5 69.5,6.5C 69.6107,5.88258 69.944,5.38258 70.5,5C 67.5184,4.50204 64.5184,4.33537 61.5,4.5C 57.9557,4.8676 54.9557,3.8676 52.5,1.5C 58.4638,0.693217 64.4638,0.359883 70.5,0.5 Z"/></g>
<g><path style="opacity:0.251" fill="#d32226" d="M 48.5,2.5 C 46.1715,4.09464 43.5048,5.09464 40.5,5.5C 39.5836,5.45728 38.9169,5.12395 38.5,4.5C 41.7635,3.51779 45.0968,2.85112 48.5,2.5 Z"/></g>
<g><path style="opacity:1" fill="#d82b2e" d="M 70.5,0.5 C 78.8746,0.259551 87.2079,0.592884 95.5,1.5C 94.158,2.79305 92.4913,3.62638 90.5,4C 85.8333,4.66667 81.1667,4.66667 76.5,4C 75.0383,2.37207 73.3717,2.2054 71.5,3.5C 69.2043,3.19593 68.871,2.19593 70.5,0.5 Z"/></g>
<g><path style="opacity:0.584" fill="#cb1d20" d="M 97.5,1.5 C 101.884,2.37612 106.217,3.37612 110.5,4.5C 107.974,5.65667 105.307,5.65667 102.5,4.5C 100.58,3.93479 98.9133,2.93479 97.5,1.5 Z"/></g>
<g><path style="opacity:1" fill="#6d0c11" d="M 52.5,1.5 C 54.9557,3.8676 57.9557,4.8676 61.5,4.5C 62.9516,5.30192 64.6183,5.80192 66.5,6C 63.3056,6.59234 60.1389,6.42568 57,5.5C 53.8919,6.331 54.0585,7.16433 57.5,8C 56.2341,8.30945 55.0674,8.80945 54,9.5C 51.3292,8.65229 48.8292,8.31895 46.5,8.5C 48.9688,7.83195 51.3021,7.16528 53.5,6.5C 53.5,5.5 53.5,4.5 53.5,3.5C 51.079,3.87816 48.7457,4.54483 46.5,5.5C 45.325,5.28099 44.325,5.61432 43.5,6.5C 44.8532,7.5237 45.5198,8.85703 45.5,10.5C 43.1667,10.5 40.8333,10.5 38.5,10.5C 37.8333,10.8333 37.1667,11.1667 36.5,11.5C 34.7857,10.2616 32.7857,9.59495 30.5,9.5C 30.5,8.83333 30.5,8.16667 30.5,7.5C 32.936,6.12904 35.6027,5.12904 38.5,4.5C 38.9169,5.12395 39.5836,5.45728 40.5,5.5C 43.5048,5.09464 46.1715,4.09464 48.5,2.5C 49.7079,1.76589 51.0413,1.43255 52.5,1.5 Z"/></g>
<g><path style="opacity:1" fill="#d1171f" d="M 53.5,6.5 C 50.9407,6.80155 48.6074,6.46822 46.5,5.5C 48.7457,4.54483 51.079,3.87816 53.5,3.5C 53.5,4.5 53.5,5.5 53.5,6.5 Z"/></g>
<g><path style="opacity:1" fill="#63080d" d="M 101.5,5.5 C 101.5,4.83333 101.833,4.5 102.5,4.5C 105.307,5.65667 107.974,5.65667 110.5,4.5C 113.746,5.05414 116.746,6.05414 119.5,7.5C 119.5,8.16667 119.5,8.83333 119.5,9.5C 117.167,9.5 114.833,9.5 112.5,9.5C 112.167,9.5 111.833,9.5 111.5,9.5C 108.5,9.5 105.5,9.5 102.5,9.5C 101.737,8.73209 100.737,8.23209 99.5,8C 100.938,7.78107 102.271,7.28107 103.5,6.5C 103.043,5.70245 102.376,5.36912 101.5,5.5 Z"/></g>
<g><path style="opacity:1" fill="#811419" d="M 95.5,1.5 C 96.1667,1.5 96.8333,1.5 97.5,1.5C 98.9133,2.93479 100.58,3.93479 102.5,4.5C 101.833,4.5 101.5,4.83333 101.5,5.5C 99.4004,5.52276 97.5671,4.85609 96,3.5C 94.2377,4.59093 92.4044,5.59093 90.5,6.5C 93.6163,6.92006 96.2829,7.92006 98.5,9.5C 96.1667,9.5 93.8333,9.5 91.5,9.5C 88.4163,6.91881 84.7496,5.91881 80.5,6.5C 80.1667,6.5 79.8333,6.5 79.5,6.5C 76.754,5.74867 74.0873,4.74867 71.5,3.5C 73.3717,2.2054 75.0383,2.37207 76.5,4C 81.1667,4.66667 85.8333,4.66667 90.5,4C 92.4913,3.62638 94.158,2.79305 95.5,1.5 Z"/></g>
<g><path style="opacity:1" fill="#8d161a" d="M 61.5,4.5 C 64.5184,4.33537 67.5184,4.50204 70.5,5C 69.944,5.38258 69.6107,5.88258 69.5,6.5C 68.8333,6.83333 68.1667,7.16667 67.5,7.5C 65.8333,7.5 64.1667,7.5 62.5,7.5C 61.1667,7.5 60.5,8.16667 60.5,9.5C 59.8333,9.5 59.5,9.83333 59.5,10.5C 57.8561,10.2865 56.3561,10.6198 55,11.5C 54.5002,20.8274 54.3335,30.1607 54.5,39.5C 54.5,40.1667 54.1667,40.5 53.5,40.5C 53.5,37.1667 53.5,33.8333 53.5,30.5C 53.5,23.8333 53.5,17.1667 53.5,10.5C 51.5,10.5 49.5,10.5 47.5,10.5C 47.5,20.1667 47.5,29.8333 47.5,39.5C 47.1667,39.5 46.8333,39.5 46.5,39.5C 46.8271,29.6522 46.4938,19.9856 45.5,10.5C 45.5198,8.85703 44.8532,7.5237 43.5,6.5C 44.325,5.61432 45.325,5.28099 46.5,5.5C 48.6074,6.46822 50.9407,6.80155 53.5,6.5C 51.3021,7.16528 48.9688,7.83195 46.5,8.5C 48.8292,8.31895 51.3292,8.65229 54,9.5C 55.0674,8.80945 56.2341,8.30945 57.5,8C 54.0585,7.16433 53.8919,6.331 57,5.5C 60.1389,6.42568 63.3056,6.59234 66.5,6C 64.6183,5.80192 62.9516,5.30192 61.5,4.5 Z"/></g>
<g><path style="opacity:1" fill="#d32c3d" d="M 122.5,8.5 C 125.48,9.32338 128.147,10.6567 130.5,12.5C 128.831,16.1382 126.831,19.4715 124.5,22.5C 122.763,18.066 122.096,13.3993 122.5,8.5 Z"/></g>
<g><path style="opacity:1" fill="#ed919d" d="M 69.5,6.5 C 72.8333,6.5 76.1667,6.5 79.5,6.5C 79.8333,6.5 80.1667,6.5 80.5,6.5C 82.14,7.79008 82.64,9.45675 82,11.5C 80.3057,12.6988 78.8057,14.0322 77.5,15.5C 75.1667,12.8333 72.8333,12.8333 70.5,15.5C 68.7234,13.1756 67.7234,10.5089 67.5,7.5C 68.1667,7.16667 68.8333,6.83333 69.5,6.5 Z"/></g>
<g><path style="opacity:1" fill="#aa1017" d="M 101.5,5.5 C 102.376,5.36912 103.043,5.70245 103.5,6.5C 102.271,7.28107 100.938,7.78107 99.5,8C 100.737,8.23209 101.737,8.73209 102.5,9.5C 102.5,19.8333 102.5,30.1667 102.5,40.5C 101.609,39.8902 100.609,39.5569 99.5,39.5C 99.8274,29.3194 99.494,19.3194 98.5,9.5C 96.2829,7.92006 93.6163,6.92006 90.5,6.5C 92.4044,5.59093 94.2377,4.59093 96,3.5C 97.5671,4.85609 99.4004,5.52276 101.5,5.5 Z"/></g>
<g><path style="opacity:1" fill="#e46976" d="M 62.5,7.5 C 64.1667,7.5 65.8333,7.5 67.5,7.5C 67.7234,10.5089 68.7234,13.1756 70.5,15.5C 69.8902,16.391 69.5569,17.391 69.5,18.5C 68.017,16.9062 66.517,15.2395 65,13.5C 64.7635,11.1548 63.9302,9.1548 62.5,7.5 Z"/></g>
<g><path style="opacity:1" fill="#a50f15" d="M 112.5,9.5 C 114.833,9.5 117.167,9.5 119.5,9.5C 118.791,10.404 117.791,10.7373 116.5,10.5C 116.665,13.5184 116.498,16.5184 116,19.5C 115.667,18.5 115.333,17.5 115,16.5C 114.5,24.1594 114.334,31.8261 114.5,39.5C 113.833,39.5 113.167,39.5 112.5,39.5C 112.5,29.5 112.5,19.5 112.5,9.5 Z"/></g>
<g><path style="opacity:1" fill="#d02c3c" d="M 30.5,7.5 C 30.5,8.16667 30.5,8.83333 30.5,9.5C 32.856,11.5573 33.856,14.224 33.5,17.5C 32.453,19.1506 31.2863,20.8172 30,22.5C 29.6924,21.6919 29.1924,21.0253 28.5,20.5C 26.9974,21.0522 25.3307,21.0522 23.5,20.5C 23.6576,17.0977 23.3242,13.7644 22.5,10.5C 24.9535,8.94024 27.6202,7.94024 30.5,7.5 Z"/></g>
<g><path style="opacity:1" fill="#b71b22" d="M 91.5,10.5 C 92.5,10.5 93.5,10.5 94.5,10.5C 94.5,16.8333 94.5,23.1667 94.5,29.5C 94.5,32.8333 94.5,36.1667 94.5,39.5C 93.2652,39.2786 92.2652,38.6119 91.5,37.5C 90.8182,38.2427 90.1515,38.9094 89.5,39.5C 89.1667,39.5 88.8333,39.5 88.5,39.5C 87.8333,39.5 87.1667,39.5 86.5,39.5C 86.5,37.8333 86.5,36.1667 86.5,34.5C 87.1061,30.967 88.2728,27.6337 90,24.5C 90.994,19.882 91.494,15.2153 91.5,10.5 Z"/></g>
<g><path style="opacity:1" fill="#503533" d="M 77.5,15.5 C 77.5,16.8333 77.5,18.1667 77.5,19.5C 76.7777,18.4489 75.7777,17.7822 74.5,17.5C 72.4862,17.3915 70.8195,18.0582 69.5,19.5C 69.5,19.1667 69.5,18.8333 69.5,18.5C 69.5569,17.391 69.8902,16.391 70.5,15.5C 72.8333,12.8333 75.1667,12.8333 77.5,15.5 Z"/></g>
<g><path style="opacity:1" fill="#a41115" d="M 38.5,11.5 C 39.5,11.5 40.5,11.5 41.5,11.5C 41.5,20.1667 41.5,28.8333 41.5,37.5C 41.108,40.3243 41.108,43.3243 41.5,46.5C 41.666,51.8437 41.4994,57.1771 41,62.5C 39.9568,58.7741 39.4568,59.1074 39.5,63.5C 38.8333,63.5 38.1667,63.5 37.5,63.5C 37.5,58.1667 37.5,52.8333 37.5,47.5C 39.9572,45.9991 39.9572,44.3324 37.5,42.5C 38.8255,38.5549 39.4921,34.2216 39.5,29.5C 39.3712,23.479 39.0378,17.479 38.5,11.5 Z"/></g>
<g><path style="opacity:1" fill="#e24c57" d="M 62.5,7.5 C 63.9302,9.1548 64.7635,11.1548 65,13.5C 66.517,15.2395 68.017,16.9062 69.5,18.5C 69.5,18.8333 69.5,19.1667 69.5,19.5C 70.4385,21.9103 70.4385,24.2436 69.5,26.5C 68.1667,27.5 66.8333,28.5 65.5,29.5C 66.2176,25.0965 65.0509,21.4298 62,18.5C 60.8512,15.6074 60.3512,12.6074 60.5,9.5C 60.5,8.16667 61.1667,7.5 62.5,7.5 Z"/></g>
<g><path style="opacity:1" fill="#bc1923" d="M 119.5,7.5 C 120.609,7.55688 121.609,7.89022 122.5,8.5C 122.096,13.3993 122.763,18.066 124.5,22.5C 124.459,24.7453 123.625,25.4119 122,24.5C 119.797,26.6688 118.964,29.3354 119.5,32.5C 118.504,32.4142 117.671,32.7476 117,33.5C 116.667,31.5 116.333,29.5 116,27.5C 115.501,31.4862 115.334,35.4862 115.5,39.5C 115.167,39.5 114.833,39.5 114.5,39.5C 114.334,31.8261 114.5,24.1594 115,16.5C 115.333,17.5 115.667,18.5 116,19.5C 116.498,16.5184 116.665,13.5184 116.5,10.5C 117.791,10.7373 118.791,10.404 119.5,9.5C 119.5,8.83333 119.5,8.16667 119.5,7.5 Z"/></g>
<g><path style="opacity:1" fill="#e13f4a" d="M 89.5,10.5 C 89.8204,13.8984 89.487,17.2317 88.5,20.5C 84.9102,22.8175 83.5769,26.1508 84.5,30.5C 82.1939,28.8606 80.1939,26.8606 78.5,24.5C 80.1867,23.0824 82.02,21.7491 84,20.5C 86.1225,17.1426 87.9558,13.8093 89.5,10.5 Z"/></g>
<g><path style="opacity:1" fill="#a8151a" d="M 91.5,10.5 C 91.5,10.1667 91.5,9.83333 91.5,9.5C 93.8333,9.5 96.1667,9.5 98.5,9.5C 97.5259,19.4176 97.1926,29.4176 97.5,39.5C 96.9569,39.56 96.6236,39.8933 96.5,40.5C 97.7287,41.2811 99.062,41.7811 100.5,42C 98.7525,42.3519 97.0858,42.8519 95.5,43.5C 95.8195,38.6367 95.4861,33.97 94.5,29.5C 94.5,23.1667 94.5,16.8333 94.5,10.5C 93.5,10.5 92.5,10.5 91.5,10.5 Z"/></g>
<g><path style="opacity:1" fill="#965d52" d="M 74.5,17.5 C 74.5,20.5 74.5,23.5 74.5,26.5C 73.209,26.2627 72.209,26.596 71.5,27.5C 70.8333,27.1667 70.1667,26.8333 69.5,26.5C 70.4385,24.2436 70.4385,21.9103 69.5,19.5C 70.8195,18.0582 72.4862,17.3915 74.5,17.5 Z"/></g>
<g><path style="opacity:1" fill="#8f0c10" d="M 38.5,11.5 C 38.5,11.1667 38.5,10.8333 38.5,10.5C 40.8333,10.5 43.1667,10.5 45.5,10.5C 45.5,20.1667 45.5,29.8333 45.5,39.5C 44.1667,38.8333 42.8333,38.1667 41.5,37.5C 41.5,28.8333 41.5,20.1667 41.5,11.5C 40.5,11.5 39.5,11.5 38.5,11.5 Z"/></g>
<g><path style="opacity:1" fill="#d6363e" d="M 60.5,9.5 C 60.3512,12.6074 60.8512,15.6074 62,18.5C 65.0509,21.4298 66.2176,25.0965 65.5,29.5C 64.396,31.3885 63.0627,33.0552 61.5,34.5C 59.9843,26.622 59.3176,18.622 59.5,10.5C 59.5,9.83333 59.8333,9.5 60.5,9.5 Z"/></g>
<g><path style="opacity:1" fill="#e35763" d="M 80.5,6.5 C 84.7496,5.91881 88.4163,6.91881 91.5,9.5C 90.8333,9.83333 90.1667,10.1667 89.5,10.5C 87.9558,13.8093 86.1225,17.1426 84,20.5C 82.02,21.7491 80.1867,23.0824 78.5,24.5C 77.5489,23.0813 77.2155,21.4147 77.5,19.5C 77.5,18.1667 77.5,16.8333 77.5,15.5C 78.8057,14.0322 80.3057,12.6988 82,11.5C 82.64,9.45675 82.14,7.79008 80.5,6.5 Z"/></g>
<g><path style="opacity:1" fill="#890a10" d="M 102.5,9.5 C 105.5,9.5 108.5,9.5 111.5,9.5C 111.5,9.83333 111.5,10.1667 111.5,10.5C 110.184,13.0866 109.517,16.0866 109.5,19.5C 109.046,26.1638 108.712,32.8305 108.5,39.5C 108.167,39.5 107.833,39.5 107.5,39.5C 107.666,29.8276 107.5,20.1609 107,10.5C 106,34.5 105,34.5 104,10.5C 103.5,20.828 103.334,31.1613 103.5,41.5C 103.019,45.3491 104.686,47.3491 108.5,47.5C 108.334,52.5111 108.501,57.5111 109,62.5C 110.008,57.4591 110.508,57.7924 110.5,63.5C 106.5,63.5 102.5,63.5 98.5,63.5C 99.3178,60.4281 100.485,60.0948 102,62.5C 102.499,57.5111 102.666,52.5111 102.5,47.5C 102.5,45.1667 102.5,42.8333 102.5,40.5C 102.5,30.1667 102.5,19.8333 102.5,9.5 Z"/></g>
<g><path style="opacity:1" fill="#92050a" d="M 17.5,13.5 C 17.5,23.8333 17.5,34.1667 17.5,44.5C 16.1667,41.5 14.8333,38.5 13.5,35.5C 13.665,32.1501 13.4983,28.8168 13,25.5C 12.6667,27.1667 12.3333,28.8333 12,30.5C 9.86991,26.8284 9.03658,22.8284 9.5,18.5C 11.822,16.336 14.4887,14.6693 17.5,13.5 Z"/></g>
<g><path style="opacity:1" fill="#b01118" d="M 53.5,30.5 C 52.6728,25.0149 52.1728,19.3482 52,13.5C 51.6667,14.1667 51.3333,14.8333 51,15.5C 50.5003,23.4931 50.3336,31.4931 50.5,39.5C 49.5,39.5 48.5,39.5 47.5,39.5C 47.5,29.8333 47.5,20.1667 47.5,10.5C 49.5,10.5 51.5,10.5 53.5,10.5C 53.5,17.1667 53.5,23.8333 53.5,30.5 Z"/></g>
<g><path style="opacity:1" fill="#c92129" d="M 59.5,10.5 C 59.3176,18.622 59.9843,26.622 61.5,34.5C 61.5,37.1667 61.5,39.8333 61.5,42.5C 61.529,48.2102 61.029,53.8769 60,59.5C 59.501,55.1794 59.3343,50.8461 59.5,46.5C 59.5,45.5 59.5,44.5 59.5,43.5C 59.6539,35.3976 58.8205,27.3976 57,19.5C 55.8626,26.1196 55.3626,32.7863 55.5,39.5C 55.1667,39.5 54.8333,39.5 54.5,39.5C 54.3335,30.1607 54.5002,20.8274 55,11.5C 56.3561,10.6198 57.8561,10.2865 59.5,10.5 Z"/></g>
<g><path style="opacity:1" fill="#a60c13" d="M 111.5,10.5 C 111.806,20.2496 111.473,29.9162 110.5,39.5C 109.833,39.5 109.167,39.5 108.5,39.5C 108.712,32.8305 109.046,26.1638 109.5,19.5C 109.517,16.0866 110.184,13.0866 111.5,10.5 Z"/></g>
<g><path style="opacity:1" fill="#a60a10" d="M 20.5,11.5 C 20.6345,17.1061 22.4678,22.1061 26,26.5C 26.3333,29.8333 26.6667,33.1667 27,36.5C 27.4974,33.854 27.6641,31.1873 27.5,28.5C 29.11,31.2033 30.11,34.2033 30.5,37.5C 31.1667,37.5 31.8333,37.5 32.5,37.5C 32.5,38.1667 32.5,38.8333 32.5,39.5C 30.631,41.6353 29.9644,44.3019 30.5,47.5C 30.1667,62.1667 29.8333,62.1667 29.5,47.5C 28.8921,46.2003 28.2255,44.8669 27.5,43.5C 27.9186,42.3279 28.5853,41.3279 29.5,40.5C 28.5,39.5 27.5,38.5 26.5,37.5C 25.8182,38.2427 25.1515,38.9094 24.5,39.5C 23.2045,23.607 22.5379,23.607 22.5,39.5C 21.1667,39.5 19.8333,39.5 18.5,39.5C 18.1936,42.3854 18.5269,45.0521 19.5,47.5C 19.5,52.5 19.5,57.5 19.5,62.5C 19.1667,62.5 18.8333,62.5 18.5,62.5C 18.2491,57.4932 17.9157,52.4932 17.5,47.5C 17.5,46.5 17.5,45.5 17.5,44.5C 17.5,34.1667 17.5,23.8333 17.5,13.5C 18.2905,12.5987 19.2905,11.9321 20.5,11.5 Z"/></g>
<g><path style="opacity:1" fill="#c81a26" d="M 22.5,10.5 C 23.3242,13.7644 23.6576,17.0977 23.5,20.5C 25.3307,21.0522 26.9974,21.0522 28.5,20.5C 29.1924,21.0253 29.6924,21.6919 30,22.5C 31.2863,20.8172 32.453,19.1506 33.5,17.5C 33.6646,20.5184 33.498,23.5184 33,26.5C 31.6914,24.1088 30.6914,24.1088 30,26.5C 29.6924,25.6919 29.1924,25.0253 28.5,24.5C 27.5713,25.6888 27.238,27.0222 27.5,28.5C 27.6641,31.1873 27.4974,33.854 27,36.5C 26.6667,33.1667 26.3333,29.8333 26,26.5C 22.4678,22.1061 20.6345,17.1061 20.5,11.5C 21.1667,11.1667 21.8333,10.8333 22.5,10.5 Z"/></g>
<g><path style="opacity:1" fill="#9e070d" d="M 132.5,13.5 C 133.71,13.9321 134.71,14.5987 135.5,15.5C 135.826,23.6841 135.492,31.6841 134.5,39.5C 132.142,39.2525 130.142,39.9192 128.5,41.5C 128.334,35.4908 128.501,29.4908 129,23.5C 131,20.429 132.166,17.0957 132.5,13.5 Z"/></g>
<g><path style="opacity:1" fill="#390302" d="M 3.5,24.5 C 4.4933,33.3178 4.82664,42.3178 4.5,51.5C 3.11028,50.1007 2.11028,48.4341 1.5,46.5C 1.5,40.5 1.5,34.5 1.5,28.5C 1.73286,26.9382 2.39952,25.6049 3.5,24.5 Z"/></g>
<g><path style="opacity:1" fill="#d62d37" d="M 91.5,9.5 C 91.5,9.83333 91.5,10.1667 91.5,10.5C 91.494,15.2153 90.994,19.882 90,24.5C 88.2728,27.6337 87.1061,30.967 86.5,34.5C 85.6554,33.3285 84.9887,31.9952 84.5,30.5C 83.5769,26.1508 84.9102,22.8175 88.5,20.5C 89.487,17.2317 89.8204,13.8984 89.5,10.5C 90.1667,10.1667 90.8333,9.83333 91.5,9.5 Z"/></g>
<g><path style="opacity:1" fill="#a10d13" d="M 107.5,39.5 C 105.938,39.7329 104.605,40.3995 103.5,41.5C 103.334,31.1613 103.5,20.828 104,10.5C 105,34.5 106,34.5 107,10.5C 107.5,20.1609 107.666,29.8276 107.5,39.5 Z"/></g>
<g><path style="opacity:1" fill="#89070b" d="M 136.5,16.5 C 139.089,17.4194 141.089,19.086 142.5,21.5C 142.575,27.5293 142.241,33.5293 141.5,39.5C 136.332,40.7822 136.332,42.6156 141.5,45C 140.062,45.2189 138.729,45.7189 137.5,46.5C 138.325,47.3857 139.325,47.719 140.5,47.5C 140.5,50.1667 140.5,52.8333 140.5,55.5C 139.738,57.2624 138.404,58.2624 136.5,58.5C 136.5,54.1667 136.5,49.8333 136.5,45.5C 136.5,44.1667 136.5,42.8333 136.5,41.5C 136.5,33.1667 136.5,24.8333 136.5,16.5 Z"/></g>
<g><path style="opacity:1" fill="#b3141a" d="M 38.5,10.5 C 38.5,10.8333 38.5,11.1667 38.5,11.5C 39.0378,17.479 39.3712,23.479 39.5,29.5C 39.4921,34.2216 38.8255,38.5549 37.5,42.5C 36.7611,42.631 36.0944,42.4643 35.5,42C 36.624,41.7508 37.624,41.2508 38.5,40.5C 36.9936,39.2528 35.4936,39.2528 34,40.5C 33.9101,42.7681 35.0768,44.2681 37.5,45C 35.563,45.1216 34.2297,45.955 33.5,47.5C 33.1667,56.8333 32.8333,56.8333 32.5,47.5C 32.5,44.8333 32.5,42.1667 32.5,39.5C 33.4816,36.0381 33.815,32.3714 33.5,28.5C 34.5,28.5 35.5,28.5 36.5,28.5C 36.5,22.8333 36.5,17.1667 36.5,11.5C 37.1667,11.1667 37.8333,10.8333 38.5,10.5 Z"/></g>
<g><path style="opacity:0.969" fill="#230300" d="M 1.5,28.5 C 1.5,34.5 1.5,40.5 1.5,46.5C 0.833333,45.8333 0.166667,45.1667 -0.5,44.5C -0.5,39.8333 -0.5,35.1667 -0.5,30.5C 0.166667,29.8333 0.833333,29.1667 1.5,28.5 Z"/></g>
<g><path style="opacity:1" fill="#7e0407" d="M 9.5,18.5 C 9.03658,22.8284 9.86991,26.8284 12,30.5C 12.3333,28.8333 12.6667,27.1667 13,25.5C 13.4983,28.8168 13.665,32.1501 13.5,35.5C 12.5041,35.4142 11.6708,35.7476 11,36.5C 10.0997,39.7177 8.93301,42.7177 7.5,45.5C 6.53281,37.5856 6.19947,29.5856 6.5,21.5C 7.16667,20.1667 8.16667,19.1667 9.5,18.5 Z"/></g>
<g><path style="opacity:1" fill="#b1151a" d="M 45.5,10.5 C 46.4938,19.9856 46.8271,29.6522 46.5,39.5C 47.2297,41.045 48.563,41.8784 50.5,42C 47.7708,42.0047 45.7708,43.1713 44.5,45.5C 44.1667,44.8333 43.8333,44.1667 43.5,43.5C 44.2255,42.1331 44.8921,40.7997 45.5,39.5C 45.5,29.8333 45.5,20.1667 45.5,10.5 Z"/></g>
<g><path style="opacity:1" fill="#a81218" d="M 53.5,30.5 C 53.5,33.8333 53.5,37.1667 53.5,40.5C 53.9156,42.7525 55.249,44.2525 57.5,45C 55.563,45.1216 54.2297,45.955 53.5,47.5C 53.6655,51.5138 53.4988,55.5138 53,59.5C 52.6667,57.1667 52.3333,54.8333 52,52.5C 51.5298,54.7738 50.5298,56.7738 49,58.5C 48.5014,54.8484 48.3347,51.1817 48.5,47.5C 49.8333,47.5 51.1667,47.5 52.5,47.5C 52.6633,45.1432 52.4966,42.8098 52,40.5C 51.6174,39.944 51.1174,39.6107 50.5,39.5C 50.3336,31.4931 50.5003,23.4931 51,15.5C 51.3333,14.8333 51.6667,14.1667 52,13.5C 52.1728,19.3482 52.6728,25.0149 53.5,30.5 Z"/></g>
<g><path style="opacity:1" fill="#ad191e" d="M 59.5,43.5 C 55.102,42.8927 54.7687,41.8927 58.5,40.5C 57.675,39.6143 56.675,39.281 55.5,39.5C 55.3626,32.7863 55.8626,26.1196 57,19.5C 58.8205,27.3976 59.6539,35.3976 59.5,43.5 Z"/></g>
<g><path style="opacity:1" fill="#a0827d" d="M 69.5,26.5 C 70.1667,26.8333 70.8333,27.1667 71.5,27.5C 73.181,30.582 73.8476,33.9153 73.5,37.5C 70.8375,35.7319 67.8375,35.0653 64.5,35.5C 64.5,38.1667 64.5,40.8333 64.5,43.5C 63.8333,43.5 63.1667,43.5 62.5,43.5C 62.5,42.8333 62.1667,42.5 61.5,42.5C 61.5,39.8333 61.5,37.1667 61.5,34.5C 63.0627,33.0552 64.396,31.3885 65.5,29.5C 66.8333,28.5 68.1667,27.5 69.5,26.5 Z"/></g>
<g><path style="opacity:1" fill="#cc151e" d="M 98.5,9.5 C 99.494,19.3194 99.8274,29.3194 99.5,39.5C 98.8333,39.5 98.1667,39.5 97.5,39.5C 97.1926,29.4176 97.5259,19.4176 98.5,9.5 Z"/></g>
<g><path style="opacity:1" fill="#b81620" d="M 30.5,9.5 C 32.7857,9.59495 34.7857,10.2616 36.5,11.5C 36.5,17.1667 36.5,22.8333 36.5,28.5C 35.5,28.5 34.5,28.5 33.5,28.5C 33.815,32.3714 33.4816,36.0381 32.5,39.5C 32.5,38.8333 32.5,38.1667 32.5,37.5C 31.8333,34.8333 31.1667,34.8333 30.5,37.5C 30.11,34.2033 29.11,31.2033 27.5,28.5C 27.238,27.0222 27.5713,25.6888 28.5,24.5C 29.1924,25.0253 29.6924,25.6919 30,26.5C 30.6914,24.1088 31.6914,24.1088 33,26.5C 33.498,23.5184 33.6646,20.5184 33.5,17.5C 33.856,14.224 32.856,11.5573 30.5,9.5 Z"/></g>
<g><path style="opacity:1" fill="#5f0a0c" d="M 135.5,15.5 C 136.167,15.5 136.5,15.8333 136.5,16.5C 136.5,24.8333 136.5,33.1667 136.5,41.5C 135.5,41.1667 134.833,40.5 134.5,39.5C 135.492,31.6841 135.826,23.6841 135.5,15.5 Z"/></g>
<g><path style="opacity:0.878" fill="#410001" d="M 148.5,30.5 C 148.833,30.5 149.167,30.5 149.5,30.5C 149.5,35.1667 149.5,39.8333 149.5,44.5C 148.833,45.1667 148.167,45.8333 147.5,46.5C 147.267,41.1053 147.6,35.772 148.5,30.5 Z"/></g>
<g><path style="opacity:1" fill="#96808a" d="M 74.5,17.5 C 75.7777,17.7822 76.7777,18.4489 77.5,19.5C 77.2155,21.4147 77.5489,23.0813 78.5,24.5C 80.1939,26.8606 82.1939,28.8606 84.5,30.5C 84.9887,31.9952 85.6554,33.3285 86.5,34.5C 86.5,36.1667 86.5,37.8333 86.5,39.5C 82.8873,40.4109 82.554,42.0775 85.5,44.5C 84.7095,45.4013 83.7095,46.0679 82.5,46.5C 80.9581,45.8365 79.2914,45.1698 77.5,44.5C 79.1667,43.8333 80.8333,43.1667 82.5,42.5C 81.9234,40.4501 80.5901,39.4501 78.5,39.5C 78.0967,34.8038 77.43,30.1372 76.5,25.5C 75.8165,25.8627 75.1499,26.1961 74.5,26.5C 74.5,23.5 74.5,20.5 74.5,17.5 Z"/></g>
<g><path style="opacity:1" fill="#a20e13" d="M 119.5,32.5 C 120.181,30.8415 121.015,29.1749 122,27.5C 123.147,31.4789 123.981,35.4789 124.5,39.5C 123.041,39.4326 121.708,39.7659 120.5,40.5C 118.94,42.1561 117.94,44.1561 117.5,46.5C 117.662,44.4727 117.495,42.4727 117,40.5C 116.617,39.944 116.117,39.6107 115.5,39.5C 115.334,35.4862 115.501,31.4862 116,27.5C 116.333,29.5 116.667,31.5 117,33.5C 117.671,32.7476 118.504,32.4142 119.5,32.5 Z"/></g>
<g><path style="opacity:1" fill="#200001" d="M 147.5,27.5 C 148.11,28.391 148.443,29.391 148.5,30.5C 147.6,35.772 147.267,41.1053 147.5,46.5C 147.672,47.4916 147.338,48.1583 146.5,48.5C 146.175,41.3134 146.509,34.3134 147.5,27.5 Z"/></g>
<g><path style="opacity:1" fill="#eddbdc" d="M 32.5,37.5 C 31.8333,37.5 31.1667,37.5 30.5,37.5C 31.1667,34.8333 31.8333,34.8333 32.5,37.5 Z"/></g>
<g><path style="opacity:1" fill="#efddde" d="M 29.5,47.5 C 29.1667,47.5 28.8333,47.5 28.5,47.5C 27.5041,47.5858 26.6708,47.2524 26,46.5C 25.7096,44.0796 25.2096,41.7463 24.5,39.5C 25.1515,38.9094 25.8182,38.2427 26.5,37.5C 27.5,38.5 28.5,39.5 29.5,40.5C 28.5853,41.3279 27.9186,42.3279 27.5,43.5C 28.2255,44.8669 28.8921,46.2003 29.5,47.5 Z"/></g>
<g><path style="opacity:1" fill="#1b1e2a" d="M 78.5,39.5 C 77.8333,39.8333 77.1667,40.1667 76.5,40.5C 75.8333,40.5 75.1667,40.5 74.5,40.5C 74.4431,39.391 74.1098,38.391 73.5,37.5C 73.8476,33.9153 73.181,30.582 71.5,27.5C 72.209,26.596 73.209,26.2627 74.5,26.5C 75.1499,26.1961 75.8165,25.8627 76.5,25.5C 77.43,30.1372 78.0967,34.8038 78.5,39.5 Z"/></g>
<g><path style="opacity:1" fill="#f3e1e1" d="M 94.5,39.5 C 93.8921,40.7997 93.2255,42.1331 92.5,43.5C 92.9186,44.6721 93.5853,45.6721 94.5,46.5C 93.3493,47.731 92.1827,47.731 91,46.5C 90.7096,44.0796 90.2096,41.7463 89.5,39.5C 90.1515,38.9094 90.8182,38.2427 91.5,37.5C 92.2652,38.6119 93.2652,39.2786 94.5,39.5 Z"/></g>
<g><path style="opacity:1" fill="#b61519" d="M 111.5,9.5 C 111.833,9.5 112.167,9.5 112.5,9.5C 112.5,19.5 112.5,29.5 112.5,39.5C 112.577,40.7498 113.244,41.5831 114.5,42C 111.541,43.0457 110.874,44.8791 112.5,47.5C 112.5,52.8333 112.5,58.1667 112.5,63.5C 111.833,63.5 111.167,63.5 110.5,63.5C 110.508,57.7924 110.008,57.4591 109,62.5C 108.501,57.5111 108.334,52.5111 108.5,47.5C 109.376,47.6309 110.043,47.2975 110.5,46.5C 108.955,45.5481 107.288,45.2148 105.5,45.5C 105.351,44.448 105.517,43.448 106,42.5C 108.026,42.0853 109.526,41.0853 110.5,39.5C 111.473,29.9162 111.806,20.2496 111.5,10.5C 111.5,10.1667 111.5,9.83333 111.5,9.5 Z"/></g>
<g><path style="opacity:1" fill="#b60f18" d="M 130.5,12.5 C 131.167,12.8333 131.833,13.1667 132.5,13.5C 132.166,17.0957 131,20.429 129,23.5C 128.501,29.4908 128.334,35.4908 128.5,41.5C 128.5,42.8333 128.5,44.1667 128.5,45.5C 128.664,48.1873 128.497,50.854 128,53.5C 127.505,51.5273 127.338,49.5273 127.5,47.5C 127.824,43.4454 127.491,39.4454 126.5,35.5C 125.828,36.9492 125.161,38.2825 124.5,39.5C 123.981,35.4789 123.147,31.4789 122,27.5C 121.015,29.1749 120.181,30.8415 119.5,32.5C 118.964,29.3354 119.797,26.6688 122,24.5C 123.625,25.4119 124.459,24.7453 124.5,22.5C 126.831,19.4715 128.831,16.1382 130.5,12.5 Z"/></g>
<g><path style="opacity:1" fill="#e7d6d6" d="M 13.5,35.5 C 14.8333,38.5 16.1667,41.5 17.5,44.5C 17.5,45.5 17.5,46.5 17.5,47.5C 15.6563,46.8397 13.9896,45.8397 12.5,44.5C 11.0104,45.8397 9.34369,46.8397 7.5,47.5C 7.5,46.8333 7.5,46.1667 7.5,45.5C 8.93301,42.7177 10.0997,39.7177 11,36.5C 11.6708,35.7476 12.5041,35.4142 13.5,35.5 Z"/></g>
<g><path style="opacity:1" fill="#934944" d="M 12.5,38.5 C 13.782,39.7082 13.782,41.0416 12.5,42.5C 11.3744,41.1916 11.3744,39.8583 12.5,38.5 Z"/></g>
<g><path style="opacity:1" fill="#ebd6d6" d="M 22.5,39.5 C 22.9382,39.4346 23.2716,39.6012 23.5,40C 21.2667,42.1135 19.9334,44.6135 19.5,47.5C 18.5269,45.0521 18.1936,42.3854 18.5,39.5C 19.8333,39.5 21.1667,39.5 22.5,39.5 Z"/></g>
<g><path style="opacity:1" fill="#eddfdf" d="M 32.5,39.5 C 32.5,42.1667 32.5,44.8333 32.5,47.5C 31.8333,47.5 31.1667,47.5 30.5,47.5C 29.9644,44.3019 30.631,41.6353 32.5,39.5 Z"/></g>
<g><path style="opacity:1" fill="#460305" d="M 142.5,21.5 C 144.89,22.8908 146.557,24.8908 147.5,27.5C 146.509,34.3134 146.175,41.3134 146.5,48.5C 145.243,51.4274 143.243,53.7607 140.5,55.5C 140.5,52.8333 140.5,50.1667 140.5,47.5C 142.252,47.5824 143.252,46.7491 143.5,45C 142.556,43.5232 141.223,42.5232 139.5,42C 140.624,41.7508 141.624,41.2508 142.5,40.5C 142.376,39.8933 142.043,39.56 141.5,39.5C 142.241,33.5293 142.575,27.5293 142.5,21.5 Z"/></g>
<g><path style="opacity:1" fill="#ebd0d0" d="M 37.5,42.5 C 39.9572,44.3324 39.9572,45.9991 37.5,47.5C 36.1667,47.5 34.8333,47.5 33.5,47.5C 34.2297,45.955 35.563,45.1216 37.5,45C 35.0768,44.2681 33.9101,42.7681 34,40.5C 35.4936,39.2528 36.9936,39.2528 38.5,40.5C 37.624,41.2508 36.624,41.7508 35.5,42C 36.0944,42.4643 36.7611,42.631 37.5,42.5 Z"/></g>
<g><path style="opacity:1" fill="#e8cfcf" d="M 54.5,39.5 C 54.8333,39.5 55.1667,39.5 55.5,39.5C 56.675,39.281 57.675,39.6143 58.5,40.5C 54.7687,41.8927 55.102,42.8927 59.5,43.5C 59.5,44.5 59.5,45.5 59.5,46.5C 58.609,47.1098 57.609,47.4431 56.5,47.5C 55.5,47.5 54.5,47.5 53.5,47.5C 54.2297,45.955 55.563,45.1216 57.5,45C 55.249,44.2525 53.9156,42.7525 53.5,40.5C 54.1667,40.5 54.5,40.1667 54.5,39.5 Z"/></g>
<g><path style="opacity:1" fill="#ebdada" d="M 86.5,39.5 C 87.1667,39.5 87.8333,39.5 88.5,39.5C 88.4226,40.7498 87.756,41.5831 86.5,42C 88.4386,42.9078 89.4386,44.4078 89.5,46.5C 87.9582,47.3007 86.2915,47.634 84.5,47.5C 85.3984,46.8423 86.3984,46.1757 87.5,45.5C 87.0431,44.7025 86.3764,44.3691 85.5,44.5C 82.554,42.0775 82.8873,40.4109 86.5,39.5 Z"/></g>
<g><path style="opacity:1" fill="#ecd5d5" d="M 107.5,39.5 C 107.833,39.5 108.167,39.5 108.5,39.5C 109.167,39.5 109.833,39.5 110.5,39.5C 109.526,41.0853 108.026,42.0853 106,42.5C 105.517,43.448 105.351,44.448 105.5,45.5C 107.288,45.2148 108.955,45.5481 110.5,46.5C 110.043,47.2975 109.376,47.6309 108.5,47.5C 104.686,47.3491 103.019,45.3491 103.5,41.5C 104.605,40.3995 105.938,39.7329 107.5,39.5 Z"/></g>
<g><path style="opacity:1" fill="#956b64" d="M 74.5,40.5 C 75.1667,40.5 75.8333,40.5 76.5,40.5C 75.7659,41.7079 75.4326,43.0413 75.5,44.5C 74.8333,44.5 74.1667,44.5 73.5,44.5C 74.2341,43.2921 74.5674,41.9587 74.5,40.5 Z"/></g>
<g><path style="opacity:1" fill="#f2e2e2" d="M 112.5,39.5 C 113.167,39.5 113.833,39.5 114.5,39.5C 114.833,39.5 115.167,39.5 115.5,39.5C 116.117,39.6107 116.617,39.944 117,40.5C 117.495,42.4727 117.662,44.4727 117.5,46.5C 116.081,47.4511 114.415,47.7845 112.5,47.5C 110.874,44.8791 111.541,43.0457 114.5,42C 113.244,41.5831 112.577,40.7498 112.5,39.5 Z"/></g>
<g><path style="opacity:1" fill="#f0e0e0" d="M 127.5,47.5 C 126.833,47.5 126.167,47.5 125.5,47.5C 120.26,47.6042 118.594,45.2709 120.5,40.5C 121.708,39.7659 123.041,39.4326 124.5,39.5C 125.161,38.2825 125.828,36.9492 126.5,35.5C 127.491,39.4454 127.824,43.4454 127.5,47.5 Z"/></g>
<g><path style="opacity:1" fill="#a31a1a" d="M 121.5,41.5 C 122.833,41.5 124.167,41.5 125.5,41.5C 125.5,42.8333 125.5,44.1667 125.5,45.5C 124.167,45.5 122.833,45.5 121.5,45.5C 121.5,44.1667 121.5,42.8333 121.5,41.5 Z"/></g>
<g><path style="opacity:1" fill="#ece1e1" d="M 134.5,39.5 C 134.833,40.5 135.5,41.1667 136.5,41.5C 136.5,42.8333 136.5,44.1667 136.5,45.5C 135.18,46.9418 133.514,47.6085 131.5,47.5C 130.5,46.8333 129.5,46.1667 128.5,45.5C 128.5,44.1667 128.5,42.8333 128.5,41.5C 130.142,39.9192 132.142,39.2525 134.5,39.5 Z"/></g>
<g><path style="opacity:1" fill="#841716" d="M 130.5,41.5 C 131.833,41.5 133.167,41.5 134.5,41.5C 134.5,42.8333 134.5,44.1667 134.5,45.5C 133.167,45.5 131.833,45.5 130.5,45.5C 130.5,44.1667 130.5,42.8333 130.5,41.5 Z"/></g>
<g><path style="opacity:1" fill="#ecd4d4" d="M 41.5,37.5 C 42.8333,38.1667 44.1667,38.8333 45.5,39.5C 44.8921,40.7997 44.2255,42.1331 43.5,43.5C 43.8333,44.1667 44.1667,44.8333 44.5,45.5C 45.7708,43.1713 47.7708,42.0047 50.5,42C 48.563,41.8784 47.2297,41.045 46.5,39.5C 46.8333,39.5 47.1667,39.5 47.5,39.5C 48.5,39.5 49.5,39.5 50.5,39.5C 51.1174,39.6107 51.6174,39.944 52,40.5C 52.4966,42.8098 52.6633,45.1432 52.5,47.5C 51.1667,47.5 49.8333,47.5 48.5,47.5C 46.2244,47.3318 43.891,46.9985 41.5,46.5C 41.108,43.3243 41.108,40.3243 41.5,37.5 Z"/></g>
<g><path style="opacity:1" fill="#b51b20" d="M 62.5,43.5 C 63.1667,43.5 63.8333,43.5 64.5,43.5C 64.5,44.8333 64.5,46.1667 64.5,47.5C 64.7471,50.9387 64.4137,54.272 63.5,57.5C 62.5139,53.03 62.1805,48.3633 62.5,43.5 Z"/></g>
<g><path style="opacity:1" fill="#efd4d4" d="M 97.5,39.5 C 98.1667,39.5 98.8333,39.5 99.5,39.5C 100.609,39.5569 101.609,39.8902 102.5,40.5C 102.5,42.8333 102.5,45.1667 102.5,47.5C 100.833,47.5 99.1667,47.5 97.5,47.5C 95.8958,46.713 95.2291,45.3797 95.5,43.5C 97.0858,42.8519 98.7525,42.3519 100.5,42C 99.062,41.7811 97.7287,41.2811 96.5,40.5C 96.6236,39.8933 96.9569,39.56 97.5,39.5 Z"/></g>
<g><path style="opacity:1" fill="#b71d20" d="M 48.5,43.5 C 49.3764,43.3691 50.0431,43.7025 50.5,44.5C 48.1916,45.8734 47.5249,45.5401 48.5,43.5 Z"/></g>
<g><path style="opacity:1" fill="#dedad9" d="M 78.5,39.5 C 80.5901,39.4501 81.9234,40.4501 82.5,42.5C 80.8333,43.1667 79.1667,43.8333 77.5,44.5C 79.2914,45.1698 80.9581,45.8365 82.5,46.5C 81.791,47.404 80.791,47.7373 79.5,47.5C 77.5956,47.2624 76.2623,46.2624 75.5,44.5C 75.4326,43.0413 75.7659,41.7079 76.5,40.5C 77.1667,40.1667 77.8333,39.8333 78.5,39.5 Z"/></g>
<g><path style="opacity:1" fill="#c11f23" d="M 98.5,43.5 C 99.3764,43.3691 100.043,43.7025 100.5,44.5C 98.1916,45.8734 97.5249,45.5401 98.5,43.5 Z"/></g>
<g><path style="opacity:1" fill="#b02825" d="M 113.5,43.5 C 115.337,43.6395 115.67,44.3061 114.5,45.5C 113.702,45.0431 113.369,44.3764 113.5,43.5 Z"/></g>
<g><path style="opacity:1" fill="#f0eded" d="M 73.5,37.5 C 74.1098,38.391 74.4431,39.391 74.5,40.5C 74.5674,41.9587 74.2341,43.2921 73.5,44.5C 73.1667,45.1667 72.8333,45.8333 72.5,46.5C 71.8333,46.5 71.5,46.8333 71.5,47.5C 69.5,47.5 67.5,47.5 65.5,47.5C 65.1667,47.5 64.8333,47.5 64.5,47.5C 64.5,46.1667 64.5,44.8333 64.5,43.5C 64.5,40.8333 64.5,38.1667 64.5,35.5C 67.8375,35.0653 70.8375,35.7319 73.5,37.5 Z"/></g>
<g><path style="opacity:1" fill="#9e847e" d="M 66.5,37.5 C 72.2445,36.8255 73.9112,39.1588 71.5,44.5C 69.9547,45.4519 68.288,45.7852 66.5,45.5C 66.5,42.8333 66.5,40.1667 66.5,37.5 Z"/></g>
<g><path style="opacity:1" fill="#dfcdcd" d="M 141.5,39.5 C 142.043,39.56 142.376,39.8933 142.5,40.5C 141.624,41.2508 140.624,41.7508 139.5,42C 141.223,42.5232 142.556,43.5232 143.5,45C 143.252,46.7491 142.252,47.5824 140.5,47.5C 139.325,47.719 138.325,47.3857 137.5,46.5C 138.729,45.7189 140.062,45.2189 141.5,45C 136.332,42.6156 136.332,40.7822 141.5,39.5 Z"/></g>
<g><path style="opacity:1" fill="#710408" d="M 17.5,47.5 C 17.9157,52.4932 18.2491,57.4932 18.5,62.5C 14.2637,60.5551 10.5971,57.8884 7.5,54.5C 7.5,52.1667 7.5,49.8333 7.5,47.5C 9.34369,46.8397 11.0104,45.8397 12.5,44.5C 13.9896,45.8397 15.6563,46.8397 17.5,47.5 Z"/></g>
<g><path style="opacity:1" fill="#931015" d="M 94.5,29.5 C 95.4861,33.97 95.8195,38.6367 95.5,43.5C 95.2291,45.3797 95.8958,46.713 97.5,47.5C 97.5,52.8333 97.5,58.1667 97.5,63.5C 94.8333,63.5 92.1667,63.5 89.5,63.5C 89.5,57.8333 89.5,52.1667 89.5,46.5C 89.4386,44.4078 88.4386,42.9078 86.5,42C 87.756,41.5831 88.4226,40.7498 88.5,39.5C 88.8333,39.5 89.1667,39.5 89.5,39.5C 90.2096,41.7463 90.7096,44.0796 91,46.5C 92.1827,47.731 93.3493,47.731 94.5,46.5C 93.5853,45.6721 92.9186,44.6721 92.5,43.5C 93.2255,42.1331 93.8921,40.7997 94.5,39.5C 94.5,36.1667 94.5,32.8333 94.5,29.5 Z"/></g>
<g><path style="opacity:0.726" fill="#4e0203" d="M 6.5,21.5 C 6.19947,29.5856 6.53281,37.5856 7.5,45.5C 7.5,46.1667 7.5,46.8333 7.5,47.5C 7.5,49.8333 7.5,52.1667 7.5,54.5C 6.16667,53.8333 5.16667,52.8333 4.5,51.5C 4.82664,42.3178 4.4933,33.3178 3.5,24.5C 4.16667,23.1667 5.16667,22.1667 6.5,21.5 Z"/></g>
<g><path style="opacity:1" fill="#870a0e" d="M 120.5,40.5 C 118.594,45.2709 120.26,47.6042 125.5,47.5C 125.5,52.8333 125.5,58.1667 125.5,63.5C 125.167,63.5 124.833,63.5 124.5,63.5C 124.665,60.1501 124.498,56.8168 124,53.5C 123.667,55.5 123.333,57.5 123,59.5C 122.814,57.0995 122.314,54.7662 121.5,52.5C 120.511,56.1073 120.177,59.774 120.5,63.5C 117.833,63.5 115.167,63.5 112.5,63.5C 112.5,58.1667 112.5,52.8333 112.5,47.5C 114.415,47.7845 116.081,47.4511 117.5,46.5C 117.94,44.1561 118.94,42.1561 120.5,40.5 Z"/></g>
<g><path style="opacity:1" fill="#840a0d" d="M 24.5,39.5 C 25.2096,41.7463 25.7096,44.0796 26,46.5C 26.6708,47.2524 27.5041,47.5858 28.5,47.5C 28.5,52.8333 28.5,58.1667 28.5,63.5C 26.1667,63.5 23.8333,63.5 21.5,63.5C 20.5084,63.6716 19.8417,63.3382 19.5,62.5C 19.5,57.5 19.5,52.5 19.5,47.5C 19.9334,44.6135 21.2667,42.1135 23.5,40C 23.2716,39.6012 22.9382,39.4346 22.5,39.5C 22.5379,23.607 23.2045,23.607 24.5,39.5 Z"/></g>
<g><path style="opacity:1" fill="#10151c" d="M 73.5,44.5 C 74.1667,44.5 74.8333,44.5 75.5,44.5C 76.2623,46.2624 77.5956,47.2624 79.5,47.5C 80.3194,51.2156 80.3194,54.8822 79.5,58.5C 82.2185,62.3654 83.5518,66.6988 83.5,71.5C 83.5,72.5 83.5,73.5 83.5,74.5C 81.5,74.5 79.5,74.5 77.5,74.5C 77.702,72.0504 77.3686,69.717 76.5,67.5C 75.469,66.7515 74.3024,66.0848 73,65.5C 73.6424,59.1565 73.4758,52.8231 72.5,46.5C 72.8333,45.8333 73.1667,45.1667 73.5,44.5 Z"/></g>
<g><path style="opacity:1" fill="#5f0407" d="M 136.5,45.5 C 136.5,49.8333 136.5,54.1667 136.5,58.5C 135.341,60.2503 133.674,61.2503 131.5,61.5C 131.5,56.8333 131.5,52.1667 131.5,47.5C 133.514,47.6085 135.18,46.9418 136.5,45.5 Z"/></g>
<g><path style="opacity:1" fill="#78645c" d="M 64.5,47.5 C 64.8333,47.5 65.1667,47.5 65.5,47.5C 65.8551,49.8897 66.5217,52.223 67.5,54.5C 66.4003,59.1451 64.7336,63.4785 62.5,67.5C 62.5,66.1667 62.5,64.8333 62.5,63.5C 62.8333,61.5 63.1667,59.5 63.5,57.5C 64.4137,54.272 64.7471,50.9387 64.5,47.5 Z"/></g>
<g><path style="opacity:1" fill="#8a0c11" d="M 41.5,46.5 C 43.891,46.9985 46.2244,47.3318 48.5,47.5C 48.3347,51.1817 48.5014,54.8484 49,58.5C 50.5298,56.7738 51.5298,54.7738 52,52.5C 52.3333,54.8333 52.6667,57.1667 53,59.5C 53.4988,55.5138 53.6655,51.5138 53.5,47.5C 54.5,47.5 55.5,47.5 56.5,47.5C 56.5,52.8333 56.5,58.1667 56.5,63.5C 50.8333,63.5 45.1667,63.5 39.5,63.5C 39.4568,59.1074 39.9568,58.7741 41,62.5C 41.4994,57.1771 41.666,51.8437 41.5,46.5 Z"/></g>
<g><path style="opacity:1" fill="#710609" d="M 124.5,63.5 C 123.167,63.5 121.833,63.5 120.5,63.5C 120.177,59.774 120.511,56.1073 121.5,52.5C 122.314,54.7662 122.814,57.0995 123,59.5C 123.333,57.5 123.667,55.5 124,53.5C 124.498,56.8168 124.665,60.1501 124.5,63.5 Z"/></g>
<g><path style="opacity:1" fill="#971318" d="M 61.5,42.5 C 62.1667,42.5 62.5,42.8333 62.5,43.5C 62.1805,48.3633 62.5139,53.03 63.5,57.5C 63.1667,59.5 62.8333,61.5 62.5,63.5C 60.5,63.5 58.5,63.5 56.5,63.5C 56.5,58.1667 56.5,52.8333 56.5,47.5C 57.609,47.4431 58.609,47.1098 59.5,46.5C 59.3343,50.8461 59.501,55.1794 60,59.5C 61.029,53.8769 61.529,48.2102 61.5,42.5 Z"/></g>
<g><path style="opacity:1" fill="#a61016" d="M 97.5,47.5 C 99.1667,47.5 100.833,47.5 102.5,47.5C 102.666,52.5111 102.499,57.5111 102,62.5C 100.485,60.0948 99.3178,60.4281 98.5,63.5C 98.1667,63.5 97.8333,63.5 97.5,63.5C 97.5,58.1667 97.5,52.8333 97.5,47.5 Z"/></g>
<g><path style="opacity:1" fill="#7c070c" d="M 28.5,47.5 C 28.8333,47.5 29.1667,47.5 29.5,47.5C 29.8333,62.1667 30.1667,62.1667 30.5,47.5C 31.1667,47.5 31.8333,47.5 32.5,47.5C 32.8333,56.8333 33.1667,56.8333 33.5,47.5C 34.8333,47.5 36.1667,47.5 37.5,47.5C 37.5,52.8333 37.5,58.1667 37.5,63.5C 34.5,63.5 31.5,63.5 28.5,63.5C 28.5,58.1667 28.5,52.8333 28.5,47.5 Z"/></g>
<g><path style="opacity:1" fill="#a87e70" d="M 65.5,47.5 C 67.5,47.5 69.5,47.5 71.5,47.5C 69.8437,54.81 68.177,62.1433 66.5,69.5C 66.7284,71.2073 67.0617,72.874 67.5,74.5C 65.1667,74.5 62.8333,74.5 60.5,74.5C 61.3414,72.6208 61.6747,70.6208 61.5,68.5C 62.1667,68.5 62.5,68.1667 62.5,67.5C 64.7336,63.4785 66.4003,59.1451 67.5,54.5C 66.5217,52.223 65.8551,49.8897 65.5,47.5 Z"/></g>
<g><path style="opacity:1" fill="#a5151b" d="M 89.5,46.5 C 89.5,52.1667 89.5,57.8333 89.5,63.5C 87.8333,63.5 86.1667,63.5 84.5,63.5C 83.6476,57.9975 83.6476,52.6641 84.5,47.5C 86.2915,47.634 87.9582,47.3007 89.5,46.5 Z"/></g>
<g><path style="opacity:1" fill="#78050a" d="M 128.5,45.5 C 129.5,46.1667 130.5,46.8333 131.5,47.5C 131.5,52.1667 131.5,56.8333 131.5,61.5C 130.341,63.2503 128.674,64.2503 126.5,64.5C 126.5,63.8333 126.167,63.5 125.5,63.5C 125.5,58.1667 125.5,52.8333 125.5,47.5C 126.167,47.5 126.833,47.5 127.5,47.5C 127.338,49.5273 127.505,51.5273 128,53.5C 128.497,50.854 128.664,48.1873 128.5,45.5 Z"/></g>
<g><path style="opacity:1" fill="#292527" d="M 72.5,46.5 C 73.4758,52.8231 73.6424,59.1565 73,65.5C 74.3024,66.0848 75.469,66.7515 76.5,67.5C 75.5,67.5 74.5,67.5 73.5,67.5C 73.3259,69.861 72.9926,72.1944 72.5,74.5C 70.8333,74.5 69.1667,74.5 67.5,74.5C 67.0617,72.874 66.7284,71.2073 66.5,69.5C 68.177,62.1433 69.8437,54.81 71.5,47.5C 71.5,46.8333 71.8333,46.5 72.5,46.5 Z"/></g>
<g><path style="opacity:1" fill="#b47b70" d="M 85.5,44.5 C 86.3764,44.3691 87.0431,44.7025 87.5,45.5C 86.3984,46.1757 85.3984,46.8423 84.5,47.5C 83.6476,52.6641 83.6476,57.9975 84.5,63.5C 84.5,64.5 84.5,65.5 84.5,66.5C 84.7845,68.4147 84.4511,70.0813 83.5,71.5C 83.5518,66.6988 82.2185,62.3654 79.5,58.5C 80.3194,54.8822 80.3194,51.2156 79.5,47.5C 80.791,47.7373 81.791,47.404 82.5,46.5C 83.7095,46.0679 84.7095,45.4013 85.5,44.5 Z"/></g>
<g><path style="opacity:1" fill="#3f0d0d" d="M 84.5,63.5 C 86.1667,63.5 87.8333,63.5 89.5,63.5C 92.1667,63.5 94.8333,63.5 97.5,63.5C 97.8333,63.5 98.1667,63.5 98.5,63.5C 102.5,63.5 106.5,63.5 110.5,63.5C 111.167,63.5 111.833,63.5 112.5,63.5C 115.167,63.5 117.833,63.5 120.5,63.5C 121.833,63.5 123.167,63.5 124.5,63.5C 124.833,63.5 125.167,63.5 125.5,63.5C 126.167,63.5 126.5,63.8333 126.5,64.5C 125.07,65.5375 123.403,66.2041 121.5,66.5C 113.602,67.6791 105.602,67.6791 97.5,66.5C 95.279,66.4387 94.9456,67.1054 96.5,68.5C 93.7719,66.7119 90.7719,66.2119 87.5,67C 88.4506,67.7175 88.6172,68.5509 88,69.5C 86.9609,68.2899 85.7942,67.2899 84.5,66.5C 84.5,65.5 84.5,64.5 84.5,63.5 Z"/></g>
<g><path style="opacity:1" fill="#370b0a" d="M 23.5,64.5 C 35.5046,64.3335 47.5046,64.5001 59.5,65C 56.8333,65.3333 54.1667,65.6667 51.5,66C 50.0577,66.3768 49.0577,67.2101 48.5,68.5C 47.4764,67.862 46.4764,67.1953 45.5,66.5C 43.5406,66.8748 41.7073,67.5415 40,68.5C 38.3023,67.267 36.3023,66.6004 34,66.5C 31.9674,66.5056 30.134,66.8389 28.5,67.5C 26.6316,66.7368 24.9649,65.7368 23.5,64.5 Z"/></g>
<g><path style="opacity:1" fill="#6a1e19" d="M 28.5,67.5 C 30.134,66.8389 31.9674,66.5056 34,66.5C 36.3023,66.6004 38.3023,67.267 40,68.5C 41.7073,67.5415 43.5406,66.8748 45.5,66.5C 46.4764,67.1953 47.4764,67.862 48.5,68.5C 49.9527,68.9293 51.6194,69.096 53.5,69C 52.2949,70.3756 50.9616,71.5423 49.5,72.5C 42.3091,71.6189 35.3091,69.9522 28.5,67.5 Z"/></g>
<g><path style="opacity:1" fill="#611a15" d="M 121.5,66.5 C 114.654,69.8873 107.32,71.8873 99.5,72.5C 98.147,71.4739 97.147,70.1405 96.5,68.5C 94.9456,67.1054 95.279,66.4387 97.5,66.5C 105.602,67.6791 113.602,67.6791 121.5,66.5 Z"/></g>
<g><path style="opacity:1" fill="#7e3027" d="M 84.5,66.5 C 85.7942,67.2899 86.9609,68.2899 88,69.5C 88.6172,68.5509 88.4506,67.7175 87.5,67C 90.7719,66.2119 93.7719,66.7119 96.5,68.5C 97.147,70.1405 98.147,71.4739 99.5,72.5C 97.5,73.1667 95.5,73.8333 93.5,74.5C 90.1667,74.5 86.8333,74.5 83.5,74.5C 83.5,73.5 83.5,72.5 83.5,71.5C 84.4511,70.0813 84.7845,68.4147 84.5,66.5 Z"/></g>
<g><path style="opacity:1" fill="#5b1b18" d="M 21.5,63.5 C 23.8333,63.5 26.1667,63.5 28.5,63.5C 31.5,63.5 34.5,63.5 37.5,63.5C 38.1667,63.5 38.8333,63.5 39.5,63.5C 45.1667,63.5 50.8333,63.5 56.5,63.5C 58.5,63.5 60.5,63.5 62.5,63.5C 62.5,64.8333 62.5,66.1667 62.5,67.5C 62.5,68.1667 62.1667,68.5 61.5,68.5C 57.0306,67.1961 53.6973,68.8628 51.5,73.5C 50.5084,73.6716 49.8417,73.3382 49.5,72.5C 50.9616,71.5423 52.2949,70.3756 53.5,69C 51.6194,69.096 49.9527,68.9293 48.5,68.5C 49.0577,67.2101 50.0577,66.3768 51.5,66C 54.1667,65.6667 56.8333,65.3333 59.5,65C 47.5046,64.5001 35.5046,64.3335 23.5,64.5C 22.5084,64.6716 21.8417,64.3382 21.5,63.5 Z"/></g>
<g><path style="opacity:1" fill="#8d3931" d="M 61.5,68.5 C 61.6747,70.6208 61.3414,72.6208 60.5,74.5C 59.1667,74.5 57.8333,74.5 56.5,74.5C 55.0813,73.5489 53.4147,73.2155 51.5,73.5C 53.6973,68.8628 57.0306,67.1961 61.5,68.5 Z"/></g>
<g><path style="opacity:1" fill="#97584b" d="M 76.5,67.5 C 77.3686,69.717 77.702,72.0504 77.5,74.5C 75.8333,74.5 74.1667,74.5 72.5,74.5C 72.9926,72.1944 73.3259,69.861 73.5,67.5C 74.5,67.5 75.5,67.5 76.5,67.5 Z"/></g>
</svg>
